<svg id="e7LVJubCPQ91"
  xmlns="http://www.w3.org/2000/svg"
  xmlns:xlink="http://www.w3.org/1999/xlink" viewBox="0 0 300 120" shape-rendering="geometricPrecision" text-rendering="geometricPrecision" width="300" height="120">
  <path d="M432.07004,391.78h-96.19l20.95-28.83h28.15c6.7,0,14.58,0,19.94.34-3.02-4.03-7.71-10.9-11.4-16.26l-20.11-29.66-52.62,74.41h-41.06l71.9-101.39c4.7-6.54,11.57-12.57,22.46-12.57c10.39,0,17.26,5.53,22.12,12.57l31.82123,46.05498L460.2,289.61c4.83-7.04,11.66-12.57,21.99-12.57c10.83,0,17.66,6.03,22.33,12.57L576,391h-40.82l-52.32-74.4-19.99,29.66c-.47.69-1.31,1.88-2.41,3.44-8.11,12.35-15.67864,23.70527-17.05,25.82-.3679.52337-.74009,1.04366-1.11627,1.56106-2.35769,3.39048-9.89948,14.23827-10.22369,14.69894Z" transform="translate(-277.86502-274.41)" fill="#fff"/>
</svg>